<?xml version="1.0" encoding="UTF-8"?>
<!DOCTYPE svg PUBLIC "-//W3C//DTD SVG 1.1//EN" "http://www.w3.org/Graphics/SVG/1.1/DTD/svg11.dtd">
<svg xmlns="http://www.w3.org/2000/svg" version="1.1" width="200px" height="200px" style="shape-rendering:geometricPrecision; text-rendering:geometricPrecision; image-rendering:optimizeQuality; fill-rule:evenodd; clip-rule:evenodd" xmlns:xlink="http://www.w3.org/1999/xlink">
<g><path style="opacity:1" fill="#fefefe" d="M -0.5,-0.5 C 66.1667,-0.5 132.833,-0.5 199.5,-0.5C 199.5,66.1667 199.5,132.833 199.5,199.5C 132.833,199.5 66.1667,199.5 -0.5,199.5C -0.5,132.833 -0.5,66.1667 -0.5,-0.5 Z"/></g>
<g><path style="opacity:1" fill="#070707" d="M 102.5,44.5 C 132.121,41.8869 153.288,53.8869 166,80.5C 173.452,107.145 166.285,128.978 144.5,146C 112.82,162.952 86.3205,157.118 65,128.5C 61.0606,120.955 57.394,113.288 54,105.5C 51.7487,101.874 48.5821,100.707 44.5,102C 40.6942,105.326 36.3608,107.493 31.5,108.5C 24.442,107.074 21.942,102.74 24,95.5C 26.5479,91.6397 30.0479,90.1397 34.5,91C 38.1099,92.944 41.4432,95.2774 44.5,98C 46.9712,98.7063 49.3046,98.373 51.5,97C 57.2208,86.3876 63.0541,75.8876 69,65.5C 78.0344,54.9402 89.2011,47.9402 102.5,44.5 Z"/></g>
<g><path style="opacity:1" fill="#fcfcfc" d="M 102.5,60.5 C 126.346,57.3288 142.846,66.6622 152,88.5C 156.557,112.253 147.724,128.753 125.5,138C 99.9512,143.42 82.7845,133.92 74,109.5C 70.5705,85.697 80.0705,69.3636 102.5,60.5 Z"/></g>
</svg>
